<?xml version="1.0" encoding="iso-8859-1"?>
<!-- Generator: Adobe Illustrator 19.0.0, SVG Export Plug-In . SVG Version: 6.00 Build 0)  -->
<svg version="1.1" id="Capa_1" xmlns="http://www.w3.org/2000/svg" xmlns:xlink="http://www.w3.org/1999/xlink" x="0px" y="0px"
	 viewBox="0 0 512 512" style="enable-background:new 0 0 512 512;" xml:space="preserve">
<g>
	<g>
		<path d="M384,0H128C99.84,0,76.8,23.04,76.8,51.2v409.6c0,28.16,23.04,51.2,51.2,51.2h256c28.16,0,51.2-23.04,51.2-51.2V51.2
			C435.2,23.04,412.16,0,384,0z M179.2,460.8H128v-51.2h51.2V460.8z M179.2,358.4H128v-51.2h51.2V358.4z M179.2,256H128v-51.2h51.2
			V256z M281.6,460.8h-51.2v-51.2h51.2V460.8z M281.6,358.4h-51.2v-51.2h51.2V358.4z M281.6,256h-51.2v-51.2h51.2V256z M384,460.8
			h-51.2V307.2H384V460.8z M384,256h-51.2v-51.2H384V256z M384,153.6H128V51.2h256V153.6z"/>
	</g>
</g>
<g>
</g>
<g>
</g>
<g>
</g>
<g>
</g>
<g>
</g>
<g>
</g>
<g>
</g>
<g>
</g>
<g>
</g>
<g>
</g>
<g>
</g>
<g>
</g>
<g>
</g>
<g>
</g>
<g>
</g>
</svg>
